<mxfile host="app.diagrams.net" modified="2024-05-22T06:30:06.162Z" agent="Mozilla/5.0 (Windows NT 10.0; Win64; x64) AppleWebKit/537.36 (KHTML, like Gecko) Chrome/125.0.0.0 Safari/537.36 Edg/125.0.0.0" etag="bEfKauGLfHI4T9UItWLi" version="24.4.4" type="device">
  <diagram name="Страница — 1" id="yreqE1Phnup-9DfLzwUd">
    <mxGraphModel dx="1282" dy="1019" grid="0" gridSize="10" guides="1" tooltips="1" connect="1" arrows="1" fold="1" page="0" pageScale="1" pageWidth="827" pageHeight="1169" math="0" shadow="0">
      <root>
        <mxCell id="0" />
        <mxCell id="1" parent="0" />
        <mxCell id="UK9fBe88lbr7yd56Xqgn-7" style="edgeStyle=none;curved=1;rounded=0;orthogonalLoop=1;jettySize=auto;html=1;fontSize=12;startSize=8;endSize=8;" parent="1" source="UK9fBe88lbr7yd56Xqgn-1" target="UK9fBe88lbr7yd56Xqgn-6" edge="1">
          <mxGeometry relative="1" as="geometry" />
        </mxCell>
        <mxCell id="UK9fBe88lbr7yd56Xqgn-1" value="&lt;div style=&quot;background-color:#1e1f22;color:#bcbec4&quot;&gt;&lt;pre style=&quot;font-family:&#39;JetBrains Mono&#39;,monospace;font-size:9,8pt;&quot;&gt;MatrixSumChecker&lt;/pre&gt;&lt;/div&gt;" style="rounded=0;whiteSpace=wrap;html=1;" parent="1" vertex="1">
          <mxGeometry x="117" y="72" width="120" height="60" as="geometry" />
        </mxCell>
        <mxCell id="UK9fBe88lbr7yd56Xqgn-3" style="edgeStyle=none;curved=1;rounded=0;orthogonalLoop=1;jettySize=auto;html=1;entryX=0.5;entryY=0;entryDx=0;entryDy=0;fontSize=12;startSize=8;endSize=8;" parent="1" source="UK9fBe88lbr7yd56Xqgn-2" target="UK9fBe88lbr7yd56Xqgn-1" edge="1">
          <mxGeometry relative="1" as="geometry" />
        </mxCell>
        <mxCell id="UK9fBe88lbr7yd56Xqgn-2" value="Обработчик ввода" style="rounded=0;whiteSpace=wrap;html=1;" parent="1" vertex="1">
          <mxGeometry x="117" y="-113" width="120" height="60" as="geometry" />
        </mxCell>
        <mxCell id="UK9fBe88lbr7yd56Xqgn-5" value="введённые данные" style="text;html=1;align=center;verticalAlign=middle;whiteSpace=wrap;rounded=0;fontSize=16;" parent="1" vertex="1">
          <mxGeometry x="100" y="-19" width="60" height="30" as="geometry" />
        </mxCell>
        <mxCell id="UK9fBe88lbr7yd56Xqgn-6" value="Окно вывода" style="rounded=0;whiteSpace=wrap;html=1;" parent="1" vertex="1">
          <mxGeometry x="323" y="-113" width="120" height="60" as="geometry" />
        </mxCell>
        <mxCell id="UK9fBe88lbr7yd56Xqgn-8" value="результат вычислений" style="text;html=1;align=center;verticalAlign=middle;whiteSpace=wrap;rounded=0;fontSize=16;" parent="1" vertex="1">
          <mxGeometry x="283" y="17" width="60" height="30" as="geometry" />
        </mxCell>
      </root>
    </mxGraphModel>
  </diagram>
</mxfile>
